<?xml version="1.0" standalone="no"?>
<!DOCTYPE svg PUBLIC "-//W3C//DTD SVG 20010904//EN"
 "http://www.w3.org/TR/2001/REC-SVG-20010904/DTD/svg10.dtd">
<svg version="1.0" xmlns="http://www.w3.org/2000/svg"
 width="50.000000pt" height="50.000000pt" viewBox="0 0 50.000000 50.000000"
 preserveAspectRatio="xMidYMid meet">
<g transform="translate(0.000000,50.000000) scale(0.100000,-0.100000)"
fill="#000000" stroke="none">
<path d="M215 410 c-44 -69 -45 -71 -45 -157 0 -81 -2 -89 -27 -115 l-27 -28
49 -45 c28 -24 53 -44 57 -45 3 0 30 29 58 65 48 60 53 72 63 141 8 56 7 78
-2 87 -16 16 -42 -2 -54 -37 -7 -22 -6 -32 8 -44 16 -16 17 -16 11 5 -4 12 -3
24 3 27 5 4 8 -12 6 -37 -4 -67 -16 -97 -38 -97 -7 0 -3 7 7 15 11 8 15 15 8
15 -7 0 -9 7 -5 17 5 14 2 12 -17 -4 -12 -12 -28 -20 -33 -16 -6 4 -7 1 -2 -6
5 -9 10 -10 18 -2 18 18 31 12 15 -6 -9 -10 -13 -24 -10 -32 3 -10 0 -11 -9
-5 -11 6 -10 3 1 -11 10 -13 11 -16 2 -11 -9 5 -15 1 -19 -12 -5 -20 -7 -19
-40 11 -19 17 -30 33 -24 35 6 2 8 8 5 14 -4 6 0 14 7 19 10 6 14 30 14 76 1
38 4 73 8 80 4 6 8 23 9 37 1 14 6 26 11 26 4 0 6 3 4 8 -3 4 6 21 20 37 16
20 21 23 14 8 -6 -12 -16 -25 -21 -28 -6 -4 -8 -11 -5 -16 4 -5 3 -14 -1 -21
-11 -17 -4 -100 9 -116 11 -14 47 -36 47 -29 0 2 -9 14 -20 27 -27 32 -26 85
6 155 47 107 5 118 -61 15z"/>
<path d="M256 193 c-6 -14 -5 -15 5 -6 7 7 10 15 7 18 -3 3 -9 -2 -12 -12z"/>
<path d="M200 96 c0 -2 7 -7 16 -10 8 -3 12 -2 9 4 -6 10 -25 14 -25 6z"/>
</g>
</svg>
